<?xml version="1.0" standalone="no"?>
<!DOCTYPE svg PUBLIC "-//W3C//DTD SVG 20010904//EN"
 "http://www.w3.org/TR/2001/REC-SVG-20010904/DTD/svg10.dtd">
<svg version="1.0" xmlns="http://www.w3.org/2000/svg"
 width="1646.000000pt" height="1646.000000pt" viewBox="0 0 1646.000000 1646.000000"
 preserveAspectRatio="xMidYMid meet">
<metadata>
Created by potrace 1.11, written by Peter Selinger 2001-2013
</metadata>
<g transform="translate(0.000000,1646.000000) scale(0.100000,-0.100000)"
fill="#000000" stroke="none">
<path d="M9470 15404 c-360 -34 -626 -134 -873 -328 -883 -690 -1231 -2502
-1007 -5226 54 -653 154 -1434 260 -2034 36 -201 50 -260 50 -210 0 32 152
627 229 895 560 1961 1264 3329 1996 3877 139 105 350 211 490 249 91 25 116
27 280 27 166 0 187 -2 266 -27 121 -37 189 -69 286 -133 325 -217 543 -635
619 -1194 22 -156 25 -571 5 -740 -107 -945 -528 -1876 -1207 -2670 -214 -250
-545 -569 -813 -784 -494 -396 -1114 -756 -1733 -1007 -60 -23 -108 -46 -108
-50 0 -11 207 -669 211 -673 2 -2 65 12 139 31 647 163 1388 248 1949 222 752
-34 1270 -216 1627 -573 314 -315 455 -695 455 -1231 0 -472 -118 -815 -373
-1082 -220 -230 -503 -364 -879 -418 -121 -17 -440 -20 -574 -5 -1192 133
-2467 948 -3214 2055 -223 330 -384 648 -507 1000 l-52 150 -31 -69 c-17 -38
-31 -70 -31 -72 0 -12 -209 -440 -291 -596 -641 -1217 -1367 -2119 -2104
-2613 -366 -245 -746 -397 -1080 -431 -122 -13 -59 -14 161 -4 1013 47 1810
215 2379 503 560 283 857 662 907 1157 l12 115 59 -120 c266 -542 733 -1070
1272 -1437 615 -419 1306 -657 2155 -740 182 -18 893 -18 1095 0 943 84 1650
327 2165 746 434 353 724 838 849 1418 53 246 78 571 61 776 -86 1005 -1128
1698 -2940 1956 -494 70 -1060 111 -1663 119 l-159 2 168 129 c92 71 260 207
373 301 1610 1344 2729 2792 3120 4040 234 748 229 1449 -14 2071 -103 265
-285 574 -481 819 -110 138 -412 441 -564 567 -638 528 -1511 994 -2175 1162
-262 66 -569 98 -765 80z"/>
<path d="M4170 10603 c-247 -24 -407 -50 -581 -93 -1085 -271 -1813 -1029
-1960 -2045 -17 -117 -18 -473 -1 -590 73 -507 296 -957 651 -1315 476 -479
1131 -767 1981 -871 214 -26 770 -36 1085 -20 515 27 1015 92 1455 188 91 20
176 38 190 40 24 4 28 -3 79 -129 294 -726 666 -1364 1054 -1807 423 -482 919
-772 1359 -796 l103 -6 -91 39 c-504 215 -859 779 -1230 1957 -76 239 -306
1036 -302 1041 2 1 60 25 130 53 265 105 580 254 833 394 794 437 1546 1068
1993 1672 40 55 97 124 125 153 28 28 47 52 43 52 -5 0 -160 -67 -345 -149
-792 -351 -1571 -668 -2258 -917 -237 -86 -789 -274 -805 -274 -4 0 -8 7 -8
15 0 27 -224 691 -295 875 -411 1068 -872 1739 -1465 2135 -322 216 -674 343
-1076 390 -117 14 -554 19 -664 8z m1157 -1468 c386 -73 690 -340 907 -796 97
-204 139 -333 261 -809 31 -118 83 -311 117 -428 33 -117 59 -214 57 -216 -8
-7 -388 -96 -558 -131 -311 -63 -583 -105 -891 -137 -192 -20 -695 -17 -845 5
-509 75 -821 259 -947 558 -100 240 -67 537 98 859 276 542 859 998 1394 1093
113 20 307 21 407 2z"/>
</g>
</svg>
